<svg width="456" height="379" viewBox="0 0 456 379" fill="none" xmlns="http://www.w3.org/2000/svg">
<path d="M127.876 194.021C174.701 194.021 212.66 156.075 212.66 109.265C212.66 62.4551 174.701 24.5083 127.876 24.5083C81.0508 24.5083 43.0916 62.4551 43.0916 109.265C43.0916 156.075 81.0508 194.021 127.876 194.021Z" fill="#F8F3EE" stroke="#3E3E3E" stroke-width="7.92646" stroke-miterlimit="10"/>
<path d="M74.1955 176.661L25.7969 225.044C23.4009 227.436 20.1531 228.779 16.7669 228.779C13.3806 228.779 10.1329 227.436 7.73683 225.044V225.044C5.344 222.649 4 219.402 4 216.017C4 212.632 5.344 209.385 7.73683 206.99L56.1354 158.607" stroke="#3E3E3E" stroke-width="7.92646" stroke-miterlimit="10"/>
<path d="M399.594 124.582H335.24V54.1216L399.594 124.582Z" fill="#CFB193"/>
<path d="M39.0963 175.62L57.1564 193.674" stroke="#3E3E3E" stroke-width="7.92646" stroke-miterlimit="10"/>
<path d="M127.875 213.423V349.656L164.649 372.724L203.466 340.047L229.004 372.724L269.864 346.174L297.444 356.386L335.24 340.047L383.25 356.386L399.594 350.749V124.582L335.24 54.1216H217.767" stroke="#3E3E3E" stroke-width="7.92646" stroke-miterlimit="10"/>
<path d="M165.671 54.1216H127.875V158.587" stroke="#3E3E3E" stroke-width="7.92646" stroke-miterlimit="10"/>
<path d="M335.24 54.1216V124.582H399.594" stroke="#3E3E3E" stroke-width="7.92646" stroke-miterlimit="10"/>
<path d="M227.983 282.801H220.567V308.207H212.395V282.801H184.875V278.379L208.482 210.758H216.654V211.125L194.232 275.459H212.415V240.086H220.587V275.459H227.983V282.801Z" fill="#3E3E3E"/>
<path d="M278.619 301.294C278.652 302.218 278.492 303.138 278.149 303.996C277.806 304.854 277.288 305.631 276.627 306.277C275.957 306.919 275.165 307.421 274.299 307.752C273.432 308.084 272.508 308.238 271.581 308.207H245.726C244.808 308.248 243.891 308.097 243.034 307.764C242.177 307.431 241.399 306.923 240.75 306.272C240.1 305.622 239.593 304.843 239.261 303.986C238.929 303.129 238.779 302.212 238.821 301.294V217.671C238.779 216.753 238.929 215.836 239.261 214.979C239.593 214.122 240.1 213.343 240.75 212.693C241.399 212.043 242.177 211.535 243.034 211.201C243.891 210.868 244.808 210.717 245.726 210.758H271.581C272.508 210.727 273.432 210.882 274.299 211.213C275.165 211.545 275.957 212.046 276.627 212.688C277.288 213.334 277.806 214.111 278.149 214.969C278.492 215.827 278.652 216.748 278.619 217.671V301.294ZM269.956 300.549V218.417H247.483V300.549H269.956Z" fill="#3E3E3E"/>
<path d="M332.175 282.801H324.758V308.207H316.586V282.801H289.006V278.379L312.613 210.758H320.785V211.125L298.312 275.459H316.505V240.086H324.677V275.459H332.175V282.801Z" fill="#3E3E3E"/>
<path d="M369.971 24.5079V0" stroke="#3E3E3E" stroke-width="7.92646" stroke-miterlimit="10"/>
<path d="M331.94 34.1679L316.178 15.3989" stroke="#3E3E3E" stroke-width="7.92646" stroke-miterlimit="10"/>
<path d="M407.153 38.0385L422.915 19.2593" stroke="#3E3E3E" stroke-width="7.92646" stroke-miterlimit="10"/>
<path d="M430.852 73.5336L455 69.2754" stroke="#3E3E3E" stroke-width="7.92646" stroke-miterlimit="10"/>
<path d="M424.866 119.558L446.103 131.812" stroke="#3E3E3E" stroke-width="7.92646" stroke-miterlimit="10"/>
<path d="M60.4562 109.265C60.4333 95.9689 64.3659 82.9666 71.7539 71.9106" stroke="#3E3E3E" stroke-width="7.92646" stroke-miterlimit="10"/>
</svg>
