<svg width="561" height="363" viewBox="0 0 561 363" fill="none" xmlns="http://www.w3.org/2000/svg">
<path d="M298.074 282.21H33.5219C31.2895 282.21 29.1486 281.326 27.5701 279.753C25.9916 278.18 25.1048 276.047 25.1048 273.822V85.2851C25.1048 83.0606 25.9916 80.9271 27.5701 79.3541C29.1486 77.7812 31.2895 76.8975 33.5219 76.8975H298.074C300.307 76.8975 302.448 77.7812 304.026 79.3541C305.605 80.9271 306.491 83.0606 306.491 85.2851V273.822C306.491 276.047 305.605 278.18 304.026 279.753C302.448 281.326 300.307 282.21 298.074 282.21Z" fill="white" stroke="#3E3E3E" stroke-width="8" stroke-miterlimit="10"/>
<path d="M303.855 237.547H22.4586" stroke="#3E3E3E" stroke-width="8" stroke-miterlimit="10"/>
<path d="M208.269 284.156H123.317V304.59H208.269V284.156Z" stroke="#3E3E3E" stroke-width="8" stroke-miterlimit="10"/>
<path d="M122.546 304.59H208.474C212.747 304.59 216.845 306.282 219.867 309.293C222.888 312.304 224.586 316.387 224.586 320.646V332.809H106.434V320.646C106.434 316.387 108.132 312.304 111.153 309.293C114.175 306.282 118.273 304.59 122.546 304.59V304.59Z" stroke="#3E3E3E" stroke-width="8" stroke-miterlimit="10"/>
<path d="M51.7524 332.809H115.916" stroke="#3E3E3E" stroke-width="8" stroke-miterlimit="10"/>
<path d="M0 332.809H31.94" stroke="#3E3E3E" stroke-width="8" stroke-miterlimit="10"/>
<path d="M549.259 4.89209H383.261C379.486 4.89209 376.425 7.94162 376.425 11.7034V47.7061C376.425 51.4679 379.486 54.5174 383.261 54.5174H549.259C553.034 54.5174 556.094 51.4679 556.094 47.7061V11.7034C556.094 7.94162 553.034 4.89209 549.259 4.89209Z" fill="#CFB193" stroke="#3E3E3E" stroke-width="8" stroke-miterlimit="10"/>
<path d="M534.612 29.7051H518.012" stroke="#3E3E3E" stroke-width="8" stroke-miterlimit="10"/>
<path d="M466.26 30.1914H397.908" stroke="#3E3E3E" stroke-width="8" stroke-miterlimit="10"/>
<path d="M549.259 83.709H383.261C379.486 83.709 376.425 86.7585 376.425 90.5203V126.523C376.425 130.285 379.486 133.334 383.261 133.334H549.259C553.034 133.334 556.094 130.285 556.094 126.523V90.5203C556.094 86.7585 553.034 83.709 549.259 83.709Z" fill="#CFB193" stroke="#3E3E3E" stroke-width="8" stroke-miterlimit="10"/>
<path d="M534.612 108.521H518.012" stroke="#3E3E3E" stroke-width="8" stroke-miterlimit="10"/>
<path d="M466.26 109.008H397.908" stroke="#3E3E3E" stroke-width="8" stroke-miterlimit="10"/>
<path d="M549.259 162.525H383.261C379.486 162.525 376.425 165.575 376.425 169.337V205.339C376.425 209.101 379.486 212.151 383.261 212.151H549.259C553.034 212.151 556.094 209.101 556.094 205.339V169.337C556.094 165.575 553.034 162.525 549.259 162.525Z" fill="#CFB193" stroke="#3E3E3E" stroke-width="8" stroke-miterlimit="10"/>
<path d="M534.612 187.338H518.012" stroke="#3E3E3E" stroke-width="8" stroke-miterlimit="10"/>
<path d="M466.26 187.825H397.908" stroke="#3E3E3E" stroke-width="8" stroke-miterlimit="10"/>
<path d="M527.777 54.5176H404.743V83.709H527.777V54.5176Z" fill="#F8F3EE" stroke="#3E3E3E" stroke-width="8" stroke-miterlimit="10"/>
<path d="M528.265 133.334H405.231V162.525H528.265V133.334Z" fill="#F8F3EE" stroke="#3E3E3E" stroke-width="8" stroke-miterlimit="10"/>
<path d="M263.049 282.21V304.59C263.049 304.59 259.143 325.803 284.345 325.803H360.314L378.867 297.779L394.998 325.997H416.949" stroke="#3E3E3E" stroke-width="8" stroke-miterlimit="10"/>
<path d="M466.748 358.108C484.545 358.108 498.971 343.731 498.971 325.997C498.971 308.263 484.545 293.887 466.748 293.887C448.952 293.887 434.525 308.263 434.525 325.997C434.525 343.731 448.952 358.108 466.748 358.108Z" fill="#CFB193" stroke="#3E3E3E" stroke-width="8" stroke-miterlimit="10"/>
<path d="M466.748 212.151V248.154L487.254 260.803L466.26 270.699V279.836" stroke="#3E3E3E" stroke-width="8" stroke-miterlimit="10"/>
<path d="M456.983 316.267L476.513 335.728" stroke="#3E3E3E" stroke-width="8" stroke-miterlimit="10"/>
<path d="M476.513 316.267L456.983 335.728" stroke="#3E3E3E" stroke-width="8" stroke-miterlimit="10"/>
<path d="M252.903 113.874H78.1168V136.166V212.151H252.903V113.874Z" fill="#F8F3EE" stroke="#3E3E3E" stroke-width="8" stroke-miterlimit="10"/>
<path d="M225.562 181.986C249.291 181.986 268.527 162.818 268.527 139.172C268.527 115.527 249.291 96.3584 225.562 96.3584C201.834 96.3584 182.598 115.527 182.598 139.172C182.598 162.818 201.834 181.986 225.562 181.986Z" fill="#CFB193" stroke="#3E3E3E" stroke-width="8" stroke-miterlimit="10"/>
<path d="M176.837 141.965H80.1577" stroke="#3E3E3E" stroke-width="8" stroke-miterlimit="10"/>
<path d="M225.562 114.36V141.119" stroke="#3E3E3E" stroke-width="10" stroke-miterlimit="10" stroke-linecap="round"/>
<path d="M225.562 166.418C229.877 166.418 233.374 162.933 233.374 158.633C233.374 154.334 229.877 150.849 225.562 150.849C221.248 150.849 217.751 154.334 217.751 158.633C217.751 162.933 221.248 166.418 225.562 166.418Z" fill="#3E3E3E"/>
</svg>
